<svg fill="#cbcbcb"  t="1605601941413" class="icon" viewBox="0 0 1024 1024" version="1.1" xmlns="http://www.w3.org/2000/svg" p-id="5531"  width="24"   height="24" ><path d="M512 85.333333C277.333333 85.333333 85.333333 277.333333 85.333333 512s192 426.666667 426.666667 426.666667c234.666667 0 426.666667-192 426.666667-426.666667S746.666667 85.333333 512 85.333333zM512 213.333333c72.533333 0 128 55.466667 128 128 0 72.533333-55.466667 128-128 128-72.533333 0-128-55.466667-128-128C384 268.8 439.466667 213.333333 512 213.333333zM512 819.2c-106.666667 0-200.533333-55.466667-256-136.533333 0-85.333333 170.666667-132.266667 256-132.266667 85.333333 0 256 46.933333 256 132.266667C712.533333 763.733333 618.666667 819.2 512 819.2z" p-id="5532"></path></svg>