<svg fill="#326cf3"  t="1606196024703" class="icon" viewBox="0 0 1024 1024" version="1.1" xmlns="http://www.w3.org/2000/svg" p-id="5704"  width="24"   height="24" ><path d="M973.438441 511.217171c-1.293459-62.195527-16.277732-116.326379-44.537356-160.889317-22.724561-35.83516-53.922097-65.416895-92.724845-87.924515-65.475224-37.98001-129.562844-42.560328-132.259256-42.736337l-383.981325-0.032746-0.86981 0.099261c-63.09706 7.213285-116.582205 27.833929-158.966525 61.288878-34.056654 26.880207-60.885695 61.922305-79.741136 104.153128-31.79924 71.220065-29.853935 137.810692-29.755698 140.610458l0.060375 0.924045c5.79396 60.484559 24.013927 112.801089 54.155411 155.49854 24.230867 34.322713 56.072063 62.394049 94.640474 83.431178 65.224514 35.57831 126.757962 38.641065 129.34488 38.753629l369.344976 0.01535 0.804319-0.084934c63.470567-6.708795 117.487831-26.276457 160.550603-58.158584 34.679847-25.676799 62.212924-59.227939 81.836867-99.722212C974.488353 578.035996 973.495746 513.90028 973.438441 511.217171zM682.548304 771.263835c-143.884015 0-260.943081-117.059066-260.943081-260.943081s117.059066-260.943081 260.943081-260.943081 260.943081 117.059066 260.943081 260.943081S826.433342 771.263835 682.548304 771.263835z" p-id="5705"></path></svg>