<svg t="1606196024704" class="icon" viewBox="0 0 1024 1024" version="1.1" xmlns="http://www.w3.org/2000/svg" p-id="5704"  width="24"   height="24" ><g transform="translate(0.000000,1024.000000) scale(0.100000,-0.100000) "  fill="#cbcbcb"  stroke="none"><path d="M3090 8024 c-712 -104 -1289 -374 -1726 -809 -144 -144 -209 -219 -311 -366 -291 -416 -477 -935 -534 -1488 -22 -217 -2 -587 47 -851 111 -606 406 -1152 825 -1529 386 -347 888 -601 1424 -720 291 -65 150 -61 2307 -61 l1966 0 154 26 c1158 194 1942 846 2307 1919 152 449 213 948 160 1310 -102 696 -359 1246 -789 1689 -421 433 -997 733 -1641 855 -216 41 -206 41 -2177 40 -1574 -1 -1934 -4 -2012 -15z m726 -343 c310 -53 524 -123 797 -263 694 -356 1204 -1030 1356 -1795 43 -216 54 -354 48 -592 -6 -226 -22 -352 -68 -539 -86 -348 -237 -670 -452 -957 -91 -122 -341 -380 -457 -471 -331 -260 -717 -440 -1115 -518 -192 -37 -308 -48 -520 -47 -436 1 -814 94 -1200 295 -714 372 -1233 1085 -1364 1876 -49 300 -42 680 20 969 175 820 726 1502 1492 1847 219 99 542 187 782 213 152 16 541 6 681 -18z"/></g></svg>